<svg xmlns="http://www.w3.org/2000/svg" xmlns:xlink="http://www.w3.org/1999/xlink"><defs><clipPath id="clip0_170_2204"><path fill="#fff" d="M0 0h24v24H0z"/></clipPath><clipPath id="clip0_111_730"><path fill="#fff" d="M0 0h24v24H0z"/></clipPath><clipPath id="clip0_12_30"><path fill="#fff" d="M0 0h24v24H0z"/></clipPath><clipPath id="clip0_12_26"><path fill="#fff" d="M0 0h24v24H0z"/></clipPath><clipPath id="clip0_12_22"><path fill="#fff" d="M0 0h24v24H0z"/></clipPath><clipPath id="clip0_12_18"><path fill="#fff" d="M0 0h24v24H0z"/></clipPath><clipPath id="clip0_12_46"><path fill="#fff" d="M0 0h24v24H0z"/></clipPath><clipPath id="clip0_12_28"><path fill="#fff" d="M0 0h24v24H0z"/></clipPath><clipPath id="clip0_12_24"><path fill="#fff" d="M0 0h24v24H0z"/></clipPath><clipPath id="clip0_12_20"><path fill="#fff" d="M0 0h24v24H0z"/></clipPath><clipPath id="clip0_111_729"><path fill="#fff" d="M0 0h24v24H0z"/></clipPath><clipPath id="clip0_170_2189"><path fill="#fff" d="M0 0h24v24H0z"/></clipPath></defs><symbol id="icon__abilitie" viewBox="0 0 24 24"><g clip-path="url(#clip0_170_2204)"><path d="M11.408 23.842C3.685 23.842.655 22.666.53 22.616a.593.593 0 01-.372-.55v-11.25c0-.327.265-.592.592-.592a7.058 7.058 0 015.777 2.962c1.189-.496 2.41-.75 4.16-.5 1.474.209 2.825.741 3.902 1.527a3.759 3.759 0 01.964-1.511c.39-.366.604-.82.604-1.282 0-.687-.004-1.538-.007-2.153l-.31.103c-.64.214-1.336.05-1.813-.427l-.415-.414a.566.566 0 00-.3-.162l-.422-.085a2.973 2.973 0 01-2.331-3.428c.578-3.203 1.413-4.696 2.626-4.696 1.168 0 3.646.677 5.518 1.245a4.15 4.15 0 012.723 2.651l.563 1.69a36.064 36.064 0 011.854 11.425v1.972c0 2.041-1.514 3.802-3.52 4.097-1.821.275-4.848.604-8.915.604z" fill="#9B51E0"/></g></symbol><symbol id="icon__all" viewBox="0 0 24 24"><path d="M11 6A5 5 0 101 6a5 5 0 0010 0zM23 6a5 5 0 10-10 0 5 5 0 0010 0zM13 18a5 5 0 1110 0 5 5 0 01-10 0zM11 18a5 5 0 10-10 0 5 5 0 0010 0z" fill="#F2C94C"/></symbol><symbol id="icon__attack" viewBox="0 0 24 24"><g clip-path="url(#clip0_111_730)" fill="#F2C94C"><path d="M10.193 22.403l1.255-1.255-1.882-1.882L22.793 8.339A3.325 3.325 0 0024 5.776V.698L18.267.023a3.325 3.325 0 00-2.952 1.184L4.545 14.245l-1.882-1.883-1.255 1.255 2.51 2.511-2.51 2.51-.628-.627a2.661 2.661 0 000 3.765l1.255 1.255a2.661 2.661 0 003.765 0l-.627-.628 2.51-2.51 2.51 2.51zm11.925-19.74L7.682 16.611c-1.055-1.055-1.1-2.51-.1-3.62l9.515-10.33h5.02zM2.663 19.892l1.882-1.882L5.8 19.266l-1.882 1.882-1.255-1.255z"/><path d="M5.366 11.763l6-7.31-2.681-3.246A3.292 3.292 0 005.75.023L.036.7v5.077a3.31 3.31 0 001.19 2.564l4.14 3.423zM22.592 18.638l-2.51-2.51 2.51-2.51-1.255-1.255-1.882 1.882-1.094-1.324-5.697 4.874 1.78 1.47-1.888 1.883 1.253 1.255 2.508-2.51 2.51 2.51-.627.628a2.661 2.661 0 003.765 0l1.255-1.255a2.661 2.661 0 000-3.765l-.628.627z"/></g></symbol><symbol id="icon__bug" viewBox="0 0 24 24"><path fill-rule="evenodd" clip-rule="evenodd" d="M16.036.023a.055.055 0 01.076-.013l1.705 1.193a.055.055 0 01.013.077l-2.372 3.387c1.153.369 1.939.766 1.939.766s-1.92 3.303-5.177 3.303c-3.257 0-5.571-3.079-5.571-3.079s.82-.523 2.037-.972l-2.602-3.1a.055.055 0 01.007-.078L7.685.169a.055.055 0 01.077.007l3.294 3.926c.282-.032.57-.05.86-.05.416 0 .833.032 1.24.086l2.88-4.115zm.644 8.87c.87-.621 2.184-2.242 2.184-2.242s3.36 2.662 3.36 8.307c0 5.644-5.808 9.042-5.808 9.042s-2.775-2.803-3.456-6.355c-.681-3.552 1.008-7.496 1.008-7.496s1.843-.636 2.712-1.257zm-9.36 0C6.45 8.271 5.136 6.65 5.136 6.65s-3.36 2.662-3.36 8.307C1.776 20.602 7.584 24 7.584 24s2.775-2.803 3.456-6.355c.681-3.552-1.008-7.496-1.008-7.496S8.19 9.513 7.32 8.892z" fill="#6FCF97"/></symbol><symbol id="icon__dark" viewBox="0 0 24 24"><g clip-path="url(#clip0_12_30)"><path fill-rule="evenodd" clip-rule="evenodd" d="M10.768 21.227a9.167 9.167 0 0010.565-9.06 9.167 9.167 0 00-10.171-9.113c2.51 1.903 4.171 5.199 4.171 8.946 0 3.94-1.835 7.38-4.565 9.227zM12 24c6.627 0 12-5.373 12-12S18.627 0 12 0 0 5.373 0 12s5.373 12 12 12z" fill="#9B51E0"/></g></symbol><symbol id="icon__defence" viewBox="0 0 24 24"><path d="M12.026.026c-.522 0-.86.235-1.174.47-2.687 1.852-5.087 2.791-7.565 2.921-.652.026-1.748.313-1.748 1.853v7.513c0 .678.078 1.382.261 2.165.365 1.67 1.252 3.209 2.713 4.67 1.774 1.8 4.017 3.182 6.887 4.278.183.052.391.104.6.104.287 0 .574-.052.757-.157l.73-.313c.6-.26 1.2-.521 1.8-.834 2.27-1.174 3.991-2.609 5.296-4.357 1.148-1.513 1.774-3.13 1.826-4.8.052-1.122.052-2.243.052-3.365V5.217c0-.965-.574-1.617-1.565-1.747l-.444-.079c-.574-.078-1.095-.13-1.617-.234-1.852-.418-3.652-1.253-5.661-2.661-.287-.209-.652-.47-1.148-.47zm7.904 12.209c0 .391 0 .782-.026 1.174-.052 1.174-.495 2.27-1.33 3.391-1.07 1.435-2.53 2.635-4.409 3.626-.548.287-1.121.522-1.67.757-.156.078-.312.13-.469.208v-9.156H4.07V5.896c2.634-.261 5.19-1.279 7.93-3.13v9.469h7.93z" fill="#219653"/></symbol><symbol id="icon__dragon" viewBox="0 0 24 24"><path fill-rule="evenodd" clip-rule="evenodd" d="M13.164 11.947c.163-.099.3-.306.412-.537 1.465.598 2.494 2.013 2.494 3.662 0 2.192-1.816 3.968-4.057 3.968-.92 0-1.768-.3-2.449-.804a9.555 9.555 0 01-.557-.29c-.233-.129-.386-.213-.481-.2-.28.038-.199.296-.125.53.05.158.097.306.024.367-.075.064-.32-.17-.607-.442-.39-.372-.856-.817-1.076-.683-.174.106-.005.392.202.743l.015.026c.087.148.189.299.28.437.189.28.34.505.264.543-.091.046-.728-.383-1.265-.98-.207-.23-.408-.48-.594-.712-.408-.508-.748-.931-.94-.881-.229.06-.055.534.2.99.12.213.26.43.381.618.19.292.333.514.281.541-.07.037-.688-.566-1.108-1.325-.249-.451-.458-.95-.628-1.353-.184-.437-.32-.763-.41-.796-.314-.114-.314.524-.188 1.446.016.12.04.246.07.375C4.522 21.13 8.263 24 12.69 24c5.415 0 9.805-4.293 9.805-9.59 0-5.04-3.977-9.172-9.029-9.559.007-.237.13-.708.13-.708s.892-2.158.94-2.62l.01-.098C14.601.926 14.705 0 13.907 0c-.425 0-.623.317-.85.679a4.348 4.348 0 01-.287.422c-.791.987-2.12 2.22-2.875 2.877-1.593 1.388-3.157 2.53-4.068 3.195-.415.303-.695.507-.782.592-.652.636-2.993 4.858-2.993 4.858s-.757 1.354-.488 1.629c.27.275.918.212.918.212s8.716-2 9.496-2.158c.21-.042.359-.066.473-.085.309-.051.364-.06.713-.274zM7.002 9.378c-.468.445-1.244 1.506-1.244 1.506s1.442.089 2.236-.666c.794-.755.613-2.041.613-2.041s-1.137.756-1.605 1.201z" fill="#EB5757"/></symbol><symbol id="icon__electric" viewBox="0 0 24 24"><path fill-rule="evenodd" clip-rule="evenodd" d="M7.428 2.35a.704.704 0 01.667-.926h6.635c.311 0 .586.205.674.504l3.311 11.143a.704.704 0 01-.674.904h-4.024c-.232 0-.4.22-.34.444l1.982 7.264c.206.756-.791 1.232-1.25.597L5.39 9.785A.704.704 0 015.96 8.67h3.08c.24 0 .409-.236.333-.463L7.428 2.35z" fill="#F2C94C"/></symbol><symbol id="icon__fairy" viewBox="0 0 24 24"><g clip-path="url(#clip0_12_26)"><path fill-rule="evenodd" clip-rule="evenodd" d="M4.815 19.03l3.85-1.116 3.325 6.08a.011.011 0 00.02 0l3.324-6.08 3.85 1.116a.011.011 0 00.014-.014l-1.116-3.773 5.911-3.233a.011.011 0 000-.02l-5.96-3.26 1.165-3.938a.011.011 0 00-.014-.014l-3.94 1.142L12.01.006a.011.011 0 00-.02 0L8.755 5.92l-3.94-1.142a.011.011 0 00-.014.014L5.966 8.73l-5.96 3.26a.011.011 0 000 .02l5.912 3.233L4.8 19.016a.011.011 0 00.014.014zm2.987-6.989l2.728 1.492 1.491 2.727a.011.011 0 00.02 0l1.492-2.727 2.727-1.492a.011.011 0 000-.02l-2.727-1.491-1.492-2.728a.011.011 0 00-.02 0L10.53 10.53 7.802 12.02a.011.011 0 000 .02z" fill="#BB6BD9"/></g></symbol><symbol id="icon__fighting" viewBox="0 0 24 24"><g clip-path="url(#clip0_12_22)"><path fill-rule="evenodd" clip-rule="evenodd" d="M4.14 1.995A2.648 2.648 0 018.921 1.2h.775a2.648 2.648 0 014.328.8h.648a2.648 2.648 0 013.832 1.2h1.762c.015 0 .03.004.041.011A2.647 2.647 0 0123.2 5.847V13.93c0 .048-.001.097-.004.145C23.036 19.58 18.086 24 12 24 5.814 24 .8 19.433.8 13.8c0-2.72 1.168-5.19 3.073-7.018-.005 2.65.04 5.391.246 5.344.553-.126.121-8.337.02-10.13z" fill="#F2994A"/></g></symbol><symbol id="icon__filter" viewBox="0 0 24 24"><path d="M10 16h4a1 1 0 01.117 1.993L14 18h-4a1 1 0 01-.117-1.993L10 16zm-2-5h8a1 1 0 01.117 1.993L16 13H8a1 1 0 01-.117-1.993L8 11zM5 6h14a1 1 0 01.117 1.993L19 8H5a1 1 0 01-.117-1.993L5 6z" fill="#E8E9E9"/></symbol><symbol id="icon__fire" viewBox="0 0 24 24"><g clip-path="url(#clip0_12_18)"><path fill-rule="evenodd" clip-rule="evenodd" d="M16.52 18.534c.297-1.084-.279-3.313-.279-3.313s-.417 1.816-1.07 2.487c-.556.572-1.238.97-2.216 1.074a2.375 2.375 0 001.35-2.134c0-1.314-1.084-2.379-2.42-2.379-1.337 0-2.42 1.065-2.42 2.379 0 .359.08.699.225 1.004-.835-.666-.967-1.734-.967-1.734s-.933 3.876 1.639 5.698c2.571 1.823 7.61.256 7.61.256s-7.21 5.073-12.553-.448C.817 16.668 4.218 10.406 4.218 10.406s-.147.581-.147 1.256c0 .674.366 1.187.366 1.187s1.09-2.299 1.939-3.234c.803-.884 1.81-1.602 2.68-2.222.67-.477 1.258-.896 1.609-1.289C12.6 3.941 11.413 0 11.413 0s2.181 1.923 2.79 4.406c.232.947.083 2.024-.05 2.987-.217 1.564-.392 2.827 1.173 2.745 2.53-.133.332-4.034.332-4.034s5.74 3.017 5.311 8.293c-.429 5.277-6.274 6.476-6.274 6.476s1.529-1.255 1.825-2.339z" fill="#EB5757"/></g></symbol><symbol id="icon__flying" viewBox="0 0 24 24"><path fill-rule="evenodd" clip-rule="evenodd" d="M8.377 22.4c3.516 0 6.526-1.954 7.768-4.724.016-.034-4.988 1.3-4.829.829.071-.21 3.139-1.331 5.374-2.638 1.284-.752 1.876-2.342 1.876-2.342s-2.164 1.05-3.258 1.317c-2.205.537-4.146.48-4.146.424 0-.121 3.223-.734 7.702-3.463 2.106-1.284 2.678-3.495 2.678-3.495s-2.316 1.38-3.716 1.835c-3.32 1.08-6.35 1.406-6.35 1.26 0-.313 2.666-1.047 5.493-2.417 1.47-.712 2.744-1.642 4.219-2.677C23.602 4.616 24 1.6 24 1.6s-2.38 1.536-3.543 2.046C15.663 5.75 11.43 6.854 8.377 7.093 3.77 7.453 0 10.668 0 14.843 0 19.015 3.75 22.4 8.377 22.4z" fill="#56CCF2"/></symbol><symbol id="icon__ghost" viewBox="0 0 24 24"><g clip-path="url(#clip0_12_46)"><path fill-rule="evenodd" clip-rule="evenodd" d="M17.295 23.917c-2.165.11-4.644.11-5.486 0C5.24 23.053 0 18.249 0 11.757 0 5.262 5.373 0 12 0s12 5.263 12 11.756a11.58 11.58 0 01-3.072 7.856c-.519.565.193.962.916 1.365.709.395 1.43.796 1.01 1.369-.46.63-2.96 1.438-5.56 1.57zm-6.983-13.63c0 1.014-.839 1.837-1.874 1.837-1.036 0-1.876-.823-1.876-1.837 0-.68.378-1.275.94-1.592.031.884 1.918 1.592 2.81 1.592zm5.812-1.592c-.032.884-1.919 1.592-2.811 1.592 0 1.014.839 1.837 1.874 1.837 1.036 0 1.876-.823 1.876-1.837a1.83 1.83 0 00-.94-1.592z" fill="#BB6BD9"/></g></symbol><symbol id="icon__grass" viewBox="0 0 24 24"><path fill-rule="evenodd" clip-rule="evenodd" d="M4.74 20.607a11.225 11.225 0 01-.244-.237c-4.25-4.25-4.25-11.142 0-15.393C8.747.726 22.292.442 22.292.442S24.14 16.12 19.89 20.37c-3.775 3.776-9.634 4.198-13.875 1.267l3.417-4.194 5.463-1.179-4.46-.446 2.835-2.886 3.226-.706-2.55-.756 2.55-4.602-3.628 4.07-1.402-1.977.494 3.265-2.528 2.849-1.171-3.605v4.794l-3.52 4.343z" fill="#219653"/></symbol><symbol id="icon__ground" viewBox="0 0 24 24"><path fill-rule="evenodd" clip-rule="evenodd" d="M5.286 20.632a.01.01 0 01-.009-.012l6.127-17.314a.01.01 0 01.01-.006h6.54a.01.01 0 01.01.006L24 20.62a.01.01 0 01-.01.012H5.287zM.01 20.7a.01.01 0 01-.01-.013L4.565 8.506a.01.01 0 01.008-.006h3.965a.01.01 0 01.009.012L4.134 20.694a.01.01 0 01-.01.006H.01z" fill="#F2994A"/></symbol><symbol id="icon__health" viewBox="0 0 24 24"><path d="M12.146 3.99c-5.218-5.22-12-1.414-12 5.268 0 4.829 5.073 10.293 12 13.17 6.732-2.73 11.708-8.487 11.708-13.17 0-6.829-6.366-10.61-11.708-5.269zM5.41 7.635a1.896 1.896 0 11-.001-3.792 1.896 1.896 0 010 3.792zm6.737 12.158c4.61-2.452 7.317-5.195 9.659-10.536 0 4.902-5.965 10.536-9.659 10.536z" fill="#EB5757"/></symbol><symbol id="icon__height" viewBox="0 0 24 24"><path d="M3.23 7.442a2.967 2.967 0 002.968 2.967c.67 0 1.286-.225 1.783-.6l.002.003 1.182-.89v5.904l-1.182-.89-.002.002a2.965 2.965 0 10-3.566 4.735l-.002.003 5.934 4.469.002-.002a2.95 2.95 0 003.566 0l.002.002 5.934-4.469-.002-.002a2.959 2.959 0 001.184-2.368 2.967 2.967 0 00-2.967-2.967 2.95 2.95 0 00-1.783.6l-.002-.003-1.182.89V8.923l1.182.89.002-.002a2.965 2.965 0 103.566-4.735l.002-.003L13.917.603l-.002.003a2.95 2.95 0 00-3.566 0l-.002-.003-5.934 4.47.002.002A2.96 2.96 0 003.23 7.442z" fill="#2F80ED"/></symbol><symbol id="icon__ice" viewBox="0 0 24 24"><path fill-rule="evenodd" clip-rule="evenodd" d="M18.096 1.716l.006 6.512-5.58 2.639V4.82l5.574-3.104zM23.702 11.962l-5.606 2.736-5.573-2.736 5.573-2.682 5.606 2.682zM11.5 11.962l-5.602 2.736-5.6-2.742 5.54-2.676 5.662 2.682zM5.838 1.716L11.5 4.82v6.047L5.839 8.104V1.716zM18.102 22.284l-5.58-3.065v-6.261l5.58 2.718v6.608zM5.898 22.284v-6.608l5.602-2.718v6.26l-5.602 3.066z" fill="#56CCF2"/></symbol><symbol id="icon__normal" viewBox="0 0 24 24"><path fill-rule="evenodd" clip-rule="evenodd" d="M22.547 12c0 5.825-4.722 10.547-10.547 10.547S1.453 17.825 1.453 12 6.175 1.453 12 1.453 22.547 6.175 22.547 12zm-4.52 0a6.027 6.027 0 11-12.054 0 6.027 6.027 0 0112.054 0z" fill="#F2C94C"/></symbol><symbol id="icon__poison" viewBox="0 0 24 24"><g clip-path="url(#clip0_12_28)"><path fill-rule="evenodd" clip-rule="evenodd" d="M20.054 18.443C22.478 16.505 24 13.705 24 10.59 24 4.741 18.627 0 12 0S0 4.742 0 10.591c0 3.002 1.414 5.711 3.687 7.639a5.521 5.521 0 00-.213 1.533c0 2.34 1.414 4.237 3.158 4.237 1.133 0 2.127-.8 2.684-2.004C9.873 23.2 10.866 24 12 24c1.033 0 1.95-.665 2.526-1.694C15.102 23.335 16.02 24 17.053 24c1.744 0 3.157-1.897 3.157-4.237 0-.46-.054-.905-.156-1.32zM18.947 10.8c0 2.97-3.18 5.378-7.105 5.378-3.924 0-7.105-2.408-7.105-5.377 0-2.97 3.181-5.378 7.105-5.378 3.924 0 7.105 2.408 7.105 5.378z" fill="#9B51E0"/></g></symbol><symbol id="icon__psychic" viewBox="0 0 24 24"><g clip-path="url(#clip0_12_24)"><path fill-rule="evenodd" clip-rule="evenodd" d="M21.385 19.933s-3.026 2.427-9.049 1.423c-4.568-.762-7.005-5.799-7.005-8.506 0-6.419 4.75-7.88 7.962-7.88 3.212 0 5.307 3.132 5.307 5.556 0 2.425-1.715 4.545-4.383 4.545-2.669 0-3.459-1.873-3.459-3.595 0-1.723 1.394-2.33 2.664-2.33 1.271 0 1.706 1.085 1.706 2.018 0 .933-.723 1.267-1.327 1.267-.603 0-.663-.305-.894-.625-.23-.32.295-1.53-.57-1.53-.866 0-1.027 1.391-1.027 1.391s.315 2.688 2.907 2.642c2.591-.047 3.82-2.05 3.463-4.034-.357-1.983-2.282-4.091-5.66-3.665-3.379.426-4.758 3.84-4.15 7.487.608 3.648 4.978 5.762 8.414 5.002 3.437-.76 6.859-3.249 6.859-9.556 0-6.307-5.463-10.098-11.976-9.473C4.653.694.61 6.389.869 13.23 1.128 20.073 7.62 23.8 13.11 23.991c5.49.193 8.856-2.985 8.856-2.985s.756-.675.46-1.202c-.297-.527-1.041.13-1.041.13z" fill="#BB6BD9"/></g></symbol><symbol id="icon__rock" viewBox="0 0 24 24"><g clip-path="url(#clip0_12_20)"><path fill-rule="evenodd" clip-rule="evenodd" d="M18.569 12.142a.008.008 0 01-.002-.007L20.1 3.207c0-.004.004-.007.008-.007h.485c.003 0 .007.002.008.006l3.45 10.922a.009.009 0 01-.004.01l-2.543 1.985a.009.009 0 01-.012-.002l-2.922-3.98zM0 18.06c0 .004.002.007.006.009l5.243 1.714.007-.001 11.72-8.09a.008.008 0 00.003-.007l1.257-8.432a.009.009 0 00-.009-.01H7.847a.009.009 0 00-.006.003L.002 12.702a.009.009 0 00-.002.006v5.352zm7.434 2.16l5.727 1.876.008-.001 6.82-4.892a.008.008 0 00.002-.011l-2.557-3.805a.008.008 0 00-.012-.002L7.434 20.22z" fill="#F2994A"/></g></symbol><symbol id="icon__speed" viewBox="0 0 24 24"><g clip-path="url(#clip0_111_729)"><path d="M18.628 13.106c2.593-1.25 5.961-4.604 4.912-6.175-1.155-1.73-3.675 0-3.675 0 2.52-1.838 3.675-5.297 1.995-6.162-1.68-.865-3.78 3.135-8.295 6.054-4.515 2.919-9.03 1.189-12.18 5.73-3.15 4.54-.393 9.3 2.94 10.27 2.988.869 5.889.086 7.394-1.08.042-.031 2.004-1.461 1.927-4.2-.026-.951-.305-1.97-1.293-3.093-.808-.92-2.124-1.43-3.458-1.428-1.486 0-2.908.623-3.656 1.77a3.582 3.582 0 00-.601 1.975c-.001.75.246 1.445.652 1.929.411.484.95.777 1.685.782 2.338.102 2.98-1.644 2.985-2.036 0-.398-.163-.864-.557-1.329 0 0 2.062-.101 2.131 1.33.005.844-.355 1.68-1.011 2.301-.656.628-1.58 1.063-2.752 1.282a4.47 4.47 0 01-.796.074 3.692 3.692 0 01-2.88-1.346c-.676-.813-1.031-1.878-1.033-2.987 0-.972.279-1.985.874-2.887 1.13-1.699 3.07-2.478 4.959-2.48 1.704.003 3.438.63 4.622 1.957 1.223 1.37 1.71 2.848 1.704 4.186-.015 1.136-.33 2.141-.737 2.98 3.472-.749 8.852-4.435 8.007-6.565-.674-1.696-2.736-1.248-3.863-.852z" fill="#F2994A"/></g></symbol><symbol id="icon__steel" viewBox="0 0 24 24"><path fill-rule="evenodd" clip-rule="evenodd" d="M.002 11.937a.018.018 0 010-.018L6.037 1.61a.018.018 0 01.015-.009h11.962c.006 0 .012.003.015.009l5.969 10.31a.017.017 0 010 .018l-5.97 10.3a.017.017 0 01-.014.008H6.052a.018.018 0 01-.015-.009L.002 11.938zm17.558-.014a5.558 5.558 0 11-11.116 0 5.558 5.558 0 0111.116 0z" fill="#2D9CDB"/></symbol><symbol id="icon__water" viewBox="0 0 24 24"><path fill-rule="evenodd" clip-rule="evenodd" d="M19.785 16.243c0 4.283-3.485 7.756-7.785 7.756-4.3 0-7.785-3.473-7.785-7.756 0-4.166 7.364-15.608 7.768-16.232.009-.015.025-.015.034 0 .404.624 7.768 12.066 7.768 16.232zm-9.083 5.27c-3.95-.865-3.274-5.241-3.274-5.241s1.078 2.642 3.696 3.497c2.618.856 5.782-.4 5.782-.4s-2.253 3.008-6.204 2.143z" fill="#2F80ED"/></symbol><symbol id="icon__weakness" viewBox="0 0 24 24"><path d="M11.172 6.62L12 4.139c5.38-4.966 12-2.491 12 4.138S12 22.345 12 22.345l2.069-3.724-2.483-4.138 2.483-4.138-2.897-3.724z" fill="#6FCF97"/><path d="M12.414 10.345L9.93 14.483l2.483 4.138-1.622 2.921C7.75 19.452 0 13.602 0 8.276c0-6.1 5.607-8.682 10.692-5.18L9.517 6.62l2.897 3.724z" fill="#6FCF97"/></symbol><symbol id="icon__weight" viewBox="0 0 24 24"><g clip-path="url(#clip0_170_2189)"><path d="M21.52 5.921C21.52 1.853 16.702 0 12.227 0 7.783 0 3 1.853 3 5.921c0 2.051.722 3.832 1.749 5.331a8.967 8.967 0 00-1.52 5.02c0 2.412.939 4.68 2.645 6.385.895.895 3.64 1.343 6.386 1.343 2.745 0 5.49-.448 6.386-1.343a8.97 8.97 0 002.645-6.386c0-1.82-.536-3.558-1.531-5.034 1.032-1.5 1.76-3.278 1.76-5.316zm-8.841 4.892a5.565 5.565 0 00-3.961 1.64 5.565 5.565 0 00-1.64 3.961.762.762 0 11-1.525 0c0-1.903.741-3.693 2.087-5.038a7.078 7.078 0 015.039-2.087.762.762 0 110 1.524zm5.39-1.455a8.961 8.961 0 00-5.81-2.118 8.96 8.96 0 00-5.818 2.127C5.835 8.34 5.439 7.187 5.439 5.92c0-1.73 2.332-3.482 6.789-3.482 3.322 0 6.853 1.22 6.853 3.482 0 1.26-.4 2.41-1.012 3.437z" fill="#2D9CDB"/></g></symbol><view id="icon__arrow--down-view" viewBox="0 0 24 24"/>
<use href="#icon__arrow--down" width="24" height="24" x="0" y="0"/>

<view id="icon__default-view" viewBox="0 80 24 24"/>
<use href="#icon__default" width="24" height="24" x="0" y="80"/>
</svg>